<svg width="16" height="16" viewBox="0 0 16 16" fill="none" xmlns="http://www.w3.org/2000/svg">
<path d="M8 7.33301C8.55228 7.33301 9 6.88529 9 6.33301C9 5.78072 8.55228 5.33301 8 5.33301C7.44772 5.33301 7 5.78072 7 6.33301C7 6.88529 7.44772 7.33301 8 7.33301Z" fill="white"/>
<path d="M7.99999 1.33301C6.59469 1.33294 5.24616 1.88751 4.24749 2.8762C3.24881 3.86489 2.68071 5.20778 2.66666 6.61301C2.66666 10.2663 7.36666 14.333 7.56666 14.5063C7.68741 14.6096 7.84109 14.6664 7.99999 14.6664C8.15889 14.6664 8.31257 14.6096 8.43332 14.5063C8.66666 14.333 13.3333 10.2663 13.3333 6.61301C13.3193 5.20778 12.7512 3.86489 11.7525 2.8762C10.7538 1.88751 9.40529 1.33294 7.99999 1.33301ZM7.99999 8.66634C7.5385 8.66634 7.08737 8.52949 6.70366 8.2731C6.31994 8.01671 6.02088 7.6523 5.84427 7.22594C5.66767 6.79957 5.62146 6.33042 5.71149 5.8778C5.80152 5.42517 6.02375 5.00941 6.35007 4.68309C6.6764 4.35677 7.09216 4.13454 7.54478 4.04451C7.9974 3.95448 8.46656 4.00068 8.89292 4.17729C9.31928 4.35389 9.6837 4.65296 9.94009 5.03668C10.1965 5.42039 10.3333 5.87152 10.3333 6.33301C10.3333 6.95185 10.0875 7.54534 9.64991 7.98292C9.21232 8.42051 8.61883 8.66634 7.99999 8.66634Z" fill="white"/>
</svg>
