<svg width="16" height="16" viewBox="0 0 16 16" fill="none" xmlns="http://www.w3.org/2000/svg">
<path d="M12.2187 14.9997C11.6087 14.9997 10.7519 14.7791 9.46873 14.0622C7.90842 13.1872 6.70155 12.3794 5.14967 10.8316C3.65342 9.33627 2.9253 8.36815 1.90623 6.51377C0.754983 4.42002 0.951233 3.32252 1.17061 2.85346C1.43186 2.29283 1.81748 1.95752 2.31592 1.62471C2.59903 1.43922 2.89863 1.28022 3.21092 1.14971C3.24217 1.13627 3.27123 1.12346 3.29717 1.1119C3.45186 1.04221 3.68623 0.936898 3.98311 1.0494C4.18123 1.12377 4.35811 1.27596 4.63498 1.5494C5.2028 2.1094 5.97873 3.35659 6.26498 3.96908C6.45717 4.3819 6.58436 4.6544 6.58467 4.96002C6.58467 5.31783 6.40467 5.59377 6.18623 5.89158C6.1453 5.94752 6.10467 6.00096 6.0653 6.05283C5.82748 6.36533 5.7753 6.45565 5.80967 6.6169C5.87936 6.94096 6.39905 7.90565 7.25311 8.75784C8.10717 9.61002 9.04405 10.0969 9.36936 10.1663C9.53748 10.2022 9.62967 10.1478 9.95217 9.90158C9.99842 9.86627 10.0459 9.82971 10.0956 9.79315C10.4287 9.54534 10.6919 9.37002 11.0412 9.37002H11.0431C11.3472 9.37002 11.6075 9.5019 12.0387 9.7194C12.6012 10.0031 13.8859 10.7691 14.4494 11.3375C14.7234 11.6138 14.8762 11.79 14.9509 11.9878C15.0634 12.2856 14.9575 12.5191 14.8884 12.6753C14.8769 12.7013 14.864 12.7297 14.8506 12.7613C14.7191 13.073 14.5591 13.372 14.3728 13.6544C14.0406 14.1513 13.704 14.536 13.1422 14.7975C12.8536 14.934 12.5379 15.0031 12.2187 14.9997Z" fill="white"/>
</svg>
