<svg width="189" height="32" viewBox="0 0 189 32" fill="none" xmlns="http://www.w3.org/2000/svg">
<g clip-path="url(#clip0_3_412)">
<path d="M67.2093 18.9723V19.3377C67.2093 21.2912 68.7336 22.3593 71.069 22.3593C73.4044 22.3593 74.8448 21.1085 74.8448 19.3096V18.8318C74.8448 16.9346 73.838 16.007 71.5445 15.0092L68.0764 13.5336C66.0206 12.6623 64.6082 10.9056 64.6082 8.50243V7.94029C64.6082 4.83445 66.8877 2.58588 70.7754 2.58588C74.9707 2.58588 77.0264 4.90472 77.0264 7.75759V8.26352H74.2994V7.87002C74.2994 6.05711 72.9709 4.8485 70.8033 4.8485C68.6357 4.8485 67.4191 6.23981 67.4191 7.92624V8.1792C67.4191 9.99211 68.2022 10.8072 70.202 11.6926L73.8659 13.3088C76.0335 14.2925 77.5858 15.9649 77.5858 18.5648V19.2394C77.5858 22.4155 75.1105 24.6078 71.0551 24.6078C66.9996 24.6078 64.4963 22.5701 64.4963 19.4361V18.9583H67.1953L67.2093 18.9723Z" fill="white"/>
<path d="M71.069 24.8468C66.8877 24.8468 64.3005 22.7809 64.3005 19.4642V18.7756H67.4191V19.3518C67.4191 21.1085 68.7895 22.1625 71.069 22.1625C73.1947 22.1625 74.6351 21.0242 74.6351 19.3237V18.8459C74.6351 17.1594 73.8379 16.246 71.4746 15.22L68.0064 13.7444C65.727 12.7747 64.4124 10.8634 64.4124 8.51649V7.95435C64.4124 4.58149 66.9156 2.38913 70.7893 2.38913C74.663 2.38913 77.2502 4.49717 77.2502 7.77165V8.48838H74.1036V7.88408C74.1036 6.14144 72.845 5.07336 70.8173 5.07336C68.9154 5.07336 67.6428 6.22576 67.6428 7.94029V8.19326C67.6428 9.83753 68.2581 10.6105 70.2999 11.5099L73.9638 13.1261C76.481 14.2785 77.8095 16.1616 77.8095 18.5789V19.2534C77.8095 22.6544 75.1665 24.8468 71.069 24.8468ZM64.7201 19.1832V19.4502C64.7201 22.5139 67.1534 24.4111 71.069 24.4111C74.9847 24.4111 77.39 22.3874 77.39 19.2534V18.5789C77.39 16.3022 76.1873 14.6017 73.796 13.5055L70.1321 11.8893C68.2442 11.0602 67.2233 10.217 67.2233 8.19326V7.94029C67.2233 5.97279 68.6637 4.65176 70.8173 4.65176C72.9709 4.65176 74.5232 5.93063 74.5232 7.88408V8.06678H76.8306V7.77165C76.8306 4.70797 74.5092 2.81074 70.7893 2.81074C67.0695 2.81074 64.8319 4.8204 64.8319 7.94029V8.50244C64.8319 10.6807 66.0486 12.4374 68.1603 13.3509L71.6284 14.8125C73.796 15.7541 75.0546 16.7097 75.0546 18.8318V19.3096C75.0546 21.2631 73.4604 22.5701 71.069 22.5701C68.5238 22.5701 66.9995 21.3615 66.9995 19.3377V19.1832H64.7201Z" fill="white"/>
<path d="M84.2983 9.64078L84.2704 12.8731L92.2974 3.02155H95.6257L87.0393 13.2666L95.9334 24.2706H92.6051L84.2704 13.6601L84.2983 17.2297V24.2706H81.5434V3.02155H84.2983V9.64078Z" fill="white"/>
<path d="M96.3669 24.4673H92.5072L92.4513 24.383L84.4941 14.2503L84.5221 17.2016V24.4532H81.3476V2.81073H84.5221L84.4941 12.2688L92.1995 2.81073H96.0732L87.305 13.2666L96.3669 24.4813V24.4673ZM92.703 24.0457H95.4859L86.7596 13.2525L95.1643 3.21828H92.3953L84.2284 13.2385L92.717 24.0316L92.703 24.0457ZM81.7392 24.0457H84.0746V17.2156L84.0466 13.4493V13.2385V13.0417L84.0746 9.62672V3.23234H81.7392V24.0597V24.0457Z" fill="white"/>
<path d="M101.206 24.2565H98.4506V3.02155H101.206V24.2706V24.2565Z" fill="white"/>
<path d="M101.415 24.4673H98.2408V2.81073H101.415V24.4813V24.4673ZM98.6604 24.0457H100.996V3.23234H98.6604V24.0597V24.0457Z" fill="white"/>
<path d="M108.184 8.72729V24.2565H105.429V8.53054C105.429 4.90472 107.876 2.58588 112.519 2.58588C117.162 2.58588 119.609 4.90472 119.609 8.53054V24.2565H116.854V8.72729C116.854 6.43656 115.414 4.93282 112.519 4.93282C109.624 4.93282 108.184 6.43656 108.184 8.72729Z" fill="white"/>
<path d="M119.833 24.4673H116.658V8.72728C116.658 6.42249 115.19 5.14362 112.533 5.14362C109.876 5.14362 108.408 6.42249 108.408 8.72728V24.4673H105.233V8.53053C105.233 4.67985 107.96 2.37506 112.533 2.37506C117.106 2.37506 119.833 4.67985 119.833 8.53053V24.4673ZM117.078 24.0457H119.413V8.53053C119.413 4.89065 116.91 2.79667 112.533 2.79667C108.156 2.79667 105.653 4.89065 105.653 8.53053V24.0457H107.988V8.72728C107.988 6.18358 109.652 4.72201 112.533 4.72201C115.414 4.72201 117.078 6.18358 117.078 8.72728V24.0457Z" fill="white"/>
<path d="M131.258 3.02155H142.656V5.28417H134.013V11.9877H141.788V14.2222H134.013V24.2706H131.258V3.02155Z" fill="white"/>
<path d="M134.237 24.4673H131.062V2.81073H142.893V5.49496H134.251V11.7769H142.026V14.433H134.251V24.4813L134.237 24.4673ZM131.482 24.0457H133.817V13.9974H141.593V12.1845H133.817V5.07336H142.46V3.23234H131.482V24.0597V24.0457Z" fill="white"/>
<path d="M154.486 17.7497H147.144L145.313 24.2565H142.502L148.613 3.00748H153.06L159.171 24.2565H156.36L154.5 17.7497H154.486ZM147.76 15.6276H153.899L151.647 7.72948L151.06 5.35442H150.613L150.025 7.72948L147.774 15.6276H147.76Z" fill="white"/>
<path d="M159.437 24.4673H156.178L154.318 17.9605H147.284L145.452 24.4673H142.194L142.264 24.2003L148.417 2.79666H153.186L153.228 2.95125L159.409 24.4673H159.437ZM156.5 24.0457H158.877L152.892 3.21827H148.753L142.767 24.0457H145.145L146.977 17.5389H154.64L156.5 24.0457ZM154.165 15.8384H147.466L149.802 7.67325L150.431 5.14361H151.214L151.843 7.68731L154.165 15.8384ZM148.025 15.4168H153.605L151.424 7.78568L150.864 5.56522H150.738L150.193 7.78568L148.012 15.4168H148.025Z" fill="white"/>
<path d="M163.297 18.9723V19.3377C163.297 21.2912 164.821 22.3593 167.156 22.3593C169.492 22.3593 170.932 21.1085 170.932 19.3096V18.8318C170.932 16.9346 169.925 16.007 167.632 15.0092L164.164 13.5336C162.108 12.6623 160.695 10.9056 160.695 8.50243V7.94029C160.695 4.83445 162.975 2.58588 166.863 2.58588C171.058 2.58588 173.114 4.90472 173.114 7.75759V8.26352H170.387V7.87002C170.387 6.05711 169.058 4.8485 166.891 4.8485C164.723 4.8485 163.506 6.23981 163.506 7.92624V8.1792C163.506 9.99211 164.289 10.8072 166.289 11.6926L169.953 13.3088C172.121 14.2925 173.673 15.9649 173.673 18.5648V19.2394C173.673 22.4155 171.198 24.6078 167.142 24.6078C163.087 24.6078 160.584 22.5701 160.584 19.4361V18.9583H163.283L163.297 18.9723Z" fill="white"/>
<path d="M167.142 24.8468C162.961 24.8468 160.374 22.7809 160.374 19.4642V18.7756H163.492V19.3518C163.492 21.1085 164.849 22.1625 167.142 22.1625C169.268 22.1625 170.708 21.0242 170.708 19.3237V18.8459C170.708 17.1594 169.911 16.246 167.548 15.22L164.08 13.7444C161.8 12.7747 160.486 10.8634 160.486 8.51649V7.95435C160.486 4.58149 162.989 2.38913 166.863 2.38913C170.736 2.38913 173.323 4.49717 173.323 7.77165V8.48838H170.177V7.88408C170.177 6.14144 168.918 5.07336 166.891 5.07336C164.989 5.07336 163.716 6.22576 163.716 7.94029V8.19326C163.716 9.83753 164.331 10.6105 166.373 11.5099L170.037 13.1261C172.554 14.2785 173.883 16.1616 173.883 18.5789V19.2534C173.883 22.6544 171.24 24.8468 167.142 24.8468ZM160.793 19.1832V19.4502C160.793 22.5139 163.227 24.4111 167.142 24.4111C171.058 24.4111 173.463 22.3874 173.463 19.2534V18.5789C173.463 16.3022 172.261 14.6017 169.869 13.5055L166.205 11.8893C164.317 11.0602 163.297 10.217 163.297 8.19326V7.94029C163.297 5.97279 164.737 4.65176 166.891 4.65176C169.044 4.65176 170.596 5.93063 170.596 7.88408V8.06678H172.904V7.77165C172.904 4.70797 170.582 2.81074 166.863 2.81074C163.143 2.81074 160.905 4.8204 160.905 7.94029V8.50244C160.905 10.6807 162.122 12.4374 164.233 13.3509L167.702 14.8125C169.869 15.7541 171.128 16.7097 171.128 18.8318V19.3096C171.128 21.2631 169.534 22.5701 167.142 22.5701C164.597 22.5701 163.073 21.3615 163.073 19.3377V19.1832H160.793Z" fill="white"/>
<path d="M175.169 3.02155H188.79V5.36849H183.35V24.2706H180.595V5.36849H175.155V3.02155H175.169Z" fill="white"/>
<path d="M183.574 24.4673H180.4V5.57928H174.96V2.81073H189V5.57928H183.56V24.4813L183.574 24.4673ZM180.819 24.0457H183.154V5.15768H188.594V3.23234H175.393V5.15768H180.833V24.0597L180.819 24.0457Z" fill="white"/>
<path d="M54.945 0H0C0 0 4.7687 0.871322 10.2226 4.21607C14.6417 6.91436 18.6693 12.2126 27.4515 12.2266C36.2337 12.2266 40.2753 6.91436 44.6804 4.21607C50.1343 0.871322 54.903 0 54.903 0L54.945 0Z" fill="white"/>
<path opacity="0.6" d="M54.945 14.8546H0C0 14.8546 4.7687 15.4449 10.2226 17.7075C14.6417 19.5345 18.6693 23.1182 27.4515 23.1182C36.2337 23.1182 40.2753 19.5345 44.6804 17.7075C50.1343 15.4449 54.903 14.8546 54.903 14.8546H54.945Z" fill="white"/>
<path opacity="0.3" d="M54.945 26.5051H0C0 26.5051 4.7687 26.8986 10.2226 28.4023C14.6417 29.6109 18.6693 32 27.4515 32C36.2337 32 40.2753 29.6109 44.6804 28.4023C50.1343 26.8986 54.903 26.5051 54.903 26.5051H54.945Z" fill="white"/>
</g>
<defs>
<clipPath id="clip0_3_412">
<rect width="189" height="32" fill="white"/>
</clipPath>
</defs>
</svg>
