<svg width="385" height="65" viewBox="0 0 385 65" fill="none" xmlns="http://www.w3.org/2000/svg">
<g clip-path="url(#clip0_3_471)">
<path d="M136.908 38.5376V39.2798C136.908 43.2477 140.013 45.4172 144.77 45.4172C149.528 45.4172 152.462 42.8766 152.462 39.2227V38.2521C152.462 34.3983 150.411 32.5143 145.739 30.4875L138.674 27.4901C134.487 25.7203 131.609 22.152 131.609 17.2705V16.1287C131.609 9.81995 136.253 5.25253 144.172 5.25253C152.718 5.25253 156.906 9.96268 156.906 15.7576V16.7853H151.351V15.986C151.351 12.3035 148.644 9.84849 144.229 9.84849C139.814 9.84849 137.335 12.6746 137.335 16.1001V16.614C137.335 20.2964 138.93 21.9521 143.004 23.7506L150.468 27.0334C154.883 29.0316 158.045 32.4286 158.045 37.7097V39.0799C158.045 45.5314 153.003 49.9846 144.742 49.9846C136.481 49.9846 131.381 45.8454 131.381 39.4796V38.509H136.879L136.908 38.5376Z" fill="#2B9649"/>
<path d="M144.77 50.4699C136.253 50.4699 130.983 46.2736 130.983 39.5367V38.1379H137.335V39.3083C137.335 42.8766 140.127 45.0176 144.77 45.0176C149.1 45.0176 152.034 42.7053 152.034 39.2512V38.2806C152.034 34.8551 150.411 32.9996 145.596 30.9157L138.532 27.9183C133.888 25.9486 131.211 22.0663 131.211 17.2991V16.1572C131.211 9.3061 136.31 4.85287 144.201 4.85287C152.091 4.85287 157.361 9.13483 157.361 15.7861V17.242H150.952V16.0145C150.952 12.4747 148.388 10.3052 144.257 10.3052C140.383 10.3052 137.791 12.646 137.791 16.1287V16.6425C137.791 19.9824 139.044 21.5525 143.203 23.3794L150.667 26.6623C155.795 29.0031 158.501 32.8283 158.501 37.7383V39.1085C158.501 46.0167 153.117 50.4699 144.77 50.4699ZM131.837 38.9657V39.5081C131.837 45.7312 136.794 49.585 144.77 49.585C152.747 49.585 157.646 45.4743 157.646 39.1085V37.7383C157.646 33.1137 155.196 29.6596 150.325 27.433L142.862 24.1502C139.016 22.466 136.936 20.7532 136.936 16.6425V16.1287C136.936 12.1322 139.871 9.44883 144.257 9.44883C148.644 9.44883 151.807 12.0466 151.807 16.0145V16.3856H156.507V15.7861C156.507 9.56302 151.778 5.70926 144.201 5.70926C136.623 5.70926 132.065 9.79139 132.065 16.1287V17.2705C132.065 21.6952 134.543 25.2635 138.845 27.119L145.91 30.0878C150.325 32.0004 152.889 33.9416 152.889 38.2521V39.2227C152.889 43.1906 149.642 45.8454 144.77 45.8454C139.586 45.8454 136.481 43.3904 136.481 39.2798V38.9657H131.837Z" fill="#2B9649"/>
<path d="M171.719 19.5828L171.662 26.1485L188.013 6.13748H194.793L177.302 26.9478L195.42 49.2995H188.64L171.662 27.7471L171.719 34.9978V49.2995H166.107V6.13748H171.719V19.5828Z" fill="#2B9649"/>
<path d="M196.303 49.6992H188.441L188.327 49.5279L172.118 28.946L172.175 34.9407V49.6706H165.708V5.70929H172.175L172.118 24.921L187.814 5.70929H195.705L177.844 26.9478L196.303 49.7277V49.6992ZM188.839 48.8428H194.508L176.733 26.9192L193.853 6.53713H188.213L171.576 26.8907L188.868 48.8143L188.839 48.8428ZM166.506 48.8428H171.263V34.9693L171.206 27.3189V26.8907V26.491L171.263 19.5543V6.56568H166.506V48.8713V48.8428Z" fill="#2B9649"/>
<path d="M206.159 49.271H200.548V6.13748H206.159V49.2995V49.271Z" fill="#2B9649"/>
<path d="M206.587 49.6992H200.12V5.70929H206.587V49.7277V49.6992ZM200.975 48.8428H205.732V6.56568H200.975V48.8713V48.8428Z" fill="#2B9649"/>
<path d="M220.374 17.7273V49.271H214.762V17.3276C214.762 9.96268 219.748 5.25253 229.205 5.25253C238.663 5.25253 243.648 9.96268 243.648 17.3276V49.271H238.036V17.7273C238.036 13.0742 235.102 10.0198 229.205 10.0198C223.309 10.0198 220.374 13.0742 220.374 17.7273Z" fill="#2B9649"/>
<path d="M244.104 49.6992H237.637V17.7273C237.637 13.0457 234.646 10.448 229.234 10.448C223.821 10.448 220.83 13.0457 220.83 17.7273V49.6992H214.364V17.3276C214.364 9.50594 219.919 4.82434 229.234 4.82434C238.549 4.82434 244.104 9.50594 244.104 17.3276V49.6992ZM238.492 48.8428H243.249V17.3276C243.249 9.93413 238.15 5.68073 229.234 5.68073C220.317 5.68073 215.218 9.93413 215.218 17.3276V48.8428H219.976V17.7273C219.976 12.5604 223.366 9.59158 229.234 9.59158C235.102 9.59158 238.492 12.5604 238.492 17.7273V48.8428Z" fill="#2B9649"/>
<path d="M267.378 6.13748H290.595V10.7334H272.99V24.35H288.828V28.8889H272.99V49.2995H267.378V6.13748Z" fill="#2B9649"/>
<path d="M273.445 49.6992H266.979V5.70929H291.079V11.1616H273.474V23.9218H289.313V29.3171H273.474V49.7277L273.445 49.6992ZM267.834 48.8428H272.591V28.4322H288.43V24.7497H272.591V10.3052H290.196V6.56568H267.834V48.8713V48.8428Z" fill="#2B9649"/>
<path d="M314.694 36.054H299.739L296.007 49.271H290.281L302.73 6.10892H311.789L324.238 49.271H318.512L314.723 36.054H314.694ZM300.992 31.7435H313.498L308.912 15.7005L307.715 10.8762H306.804L305.607 15.7005L301.021 31.7435H300.992Z" fill="#2B9649"/>
<path d="M324.779 49.6992H318.141L314.353 36.4822H300.024L296.292 49.6992H289.654L289.797 49.1568L302.331 5.68073H312.045L312.131 5.99473L324.722 49.6992H324.779ZM318.797 48.8428H323.639L311.447 6.53711H303.015L290.822 48.8428H295.665L299.397 35.6258H315.008L318.797 48.8428ZM314.039 32.1717H300.394L305.151 15.5863L306.433 10.448H308.028L309.31 15.6148L314.039 32.1717ZM301.533 31.3153H312.9L308.456 15.8147L307.316 11.3044H307.06L305.949 15.8147L301.505 31.3153H301.533Z" fill="#2B9649"/>
<path d="M332.641 38.5376V39.2798C332.641 43.2477 335.746 45.4172 340.504 45.4172C345.261 45.4172 348.195 42.8766 348.195 39.2227V38.2521C348.195 34.3983 346.144 32.5143 341.472 30.4875L334.407 27.4901C330.22 25.7203 327.343 22.152 327.343 17.2705V16.1287C327.343 9.81995 331.986 5.25253 339.905 5.25253C348.451 5.25253 352.639 9.96268 352.639 15.7576V16.7853H347.084V15.986C347.084 12.3035 344.378 9.84849 339.962 9.84849C335.547 9.84849 333.068 12.6746 333.068 16.1001V16.614C333.068 20.2964 334.664 21.9521 338.737 23.7506L346.201 27.0334C350.616 29.0316 353.778 32.4286 353.778 37.7097V39.0799C353.778 45.5314 348.736 49.9846 340.475 49.9846C332.214 49.9846 327.115 45.8454 327.115 39.4796V38.509H332.613L332.641 38.5376Z" fill="#2B9649"/>
<path d="M340.475 50.4699C331.957 50.4699 326.687 46.2736 326.687 39.5367V38.1379H333.04V39.3083C333.04 42.8766 335.803 45.0176 340.475 45.0176C344.805 45.0176 347.739 42.7053 347.739 39.2512V38.2806C347.739 34.8551 346.115 32.9996 341.301 30.9157L334.236 27.9183C329.593 25.9486 326.915 22.0663 326.915 17.2991V16.1572C326.915 9.3061 332.014 4.85287 339.905 4.85287C347.796 4.85287 353.066 9.13483 353.066 15.7861V17.242H346.657V16.0145C346.657 12.4747 344.093 10.3052 339.962 10.3052C336.088 10.3052 333.496 12.646 333.496 16.1287V16.6425C333.496 19.9824 334.749 21.5525 338.908 23.3794L346.372 26.6623C351.499 29.0031 354.206 32.8283 354.206 37.7383V39.1085C354.206 46.0167 348.822 50.4699 340.475 50.4699ZM327.542 38.9657V39.5081C327.542 45.7312 332.499 49.585 340.475 49.585C348.451 49.585 353.351 45.4743 353.351 39.1085V37.7383C353.351 33.1137 350.901 29.6596 346.03 27.433L338.566 24.1502C334.721 22.466 332.641 20.7532 332.641 16.6425V16.1287C332.641 12.1322 335.575 9.44883 339.962 9.44883C344.349 9.44883 347.511 12.0466 347.511 16.0145V16.3856H352.212V15.7861C352.212 9.56302 347.483 5.70926 339.905 5.70926C332.328 5.70926 327.77 9.79139 327.77 16.1287V17.2705C327.77 21.6952 330.248 25.2635 334.55 27.119L341.615 30.0878C346.03 32.0004 348.594 33.9416 348.594 38.2521V39.2227C348.594 43.1906 345.346 45.8454 340.475 45.8454C335.29 45.8454 332.185 43.3904 332.185 39.2798V38.9657H327.542Z" fill="#2B9649"/>
<path d="M356.827 6.13748H384.573V10.9047H373.491V49.2995H367.879V10.9047H356.798V6.13748H356.827Z" fill="#2B9649"/>
<path d="M373.947 49.6992H367.481V11.3329H356.399V5.70929H385V11.3329H373.919V49.7277L373.947 49.6992ZM368.335 48.8428H373.093V10.4765H384.174V6.56568H357.282V10.4765H368.364V48.8713L368.335 48.8428Z" fill="#2B9649"/>
<path d="M111.925 0H0C0 0 9.71402 1.76987 20.8239 8.5639C29.8258 14.0448 38.03 24.8068 55.9197 24.8353C73.8095 24.8353 82.0422 14.0448 91.0155 8.5639C102.125 1.76987 111.839 0 111.839 0L111.925 0Z" fill="#2B9649"/>
<path opacity="0.6" d="M111.925 30.1735H0C0 30.1735 9.71402 31.3724 20.8239 35.9684C29.8258 39.6794 38.03 46.9587 55.9197 46.9587C73.8095 46.9587 82.0422 39.6794 91.0155 35.9684C102.125 31.3724 111.839 30.1735 111.839 30.1735H111.925Z" fill="#2B9649"/>
<path opacity="0.3" d="M111.925 53.8384H0C0 53.8384 9.71402 54.6377 20.8239 57.6921C29.8258 60.1471 38.03 65 55.9197 65C73.8095 65 82.0422 60.1471 91.0155 57.6921C102.125 54.6377 111.839 53.8384 111.839 53.8384H111.925Z" fill="#2B9649"/>
</g>
<defs>
<clipPath id="clip0_3_471">
<rect width="385" height="65" fill="white"/>
</clipPath>
</defs>
</svg>
