<svg width="32" height="32" viewBox="0 0 32 32" fill="none" xmlns="http://www.w3.org/2000/svg">
<path fill-rule="evenodd" clip-rule="evenodd" d="M20 28C20 29.0609 19.5786 30.0783 18.8284 30.8284C18.0783 31.5786 17.0609 32 16 32C14.9391 32 13.9217 31.5786 13.1716 30.8284C12.4214 30.0783 12 29.0609 12 28C12 26.9391 12.4214 25.9217 13.1716 25.1716C13.9217 24.4214 14.9391 24 16 24C17.0609 24 18.0783 24.4214 18.8284 25.1716C19.5786 25.9217 20 26.9391 20 28ZM23.56 10.318C23.2787 10.0371 22.8975 9.87932 22.5 9.87932C22.1025 9.87932 21.7213 10.0371 21.44 10.318L17.5 14.258V1.5C17.5 1.10218 17.342 0.720644 17.0607 0.43934C16.7794 0.158035 16.3978 0 16 0C15.6022 0 15.2206 0.158035 14.9393 0.43934C14.658 0.720644 14.5 1.10218 14.5 1.5V14.258L10.56 10.318C10.2757 10.053 9.89956 9.90879 9.51095 9.91565C9.12235 9.92251 8.75158 10.0799 8.47676 10.3548C8.20193 10.6296 8.04451 11.0004 8.03765 11.389C8.03079 11.7776 8.17504 12.1537 8.44 12.438L14.94 18.938L16 20L17.06 18.94L23.56 12.44C23.6994 12.3007 23.81 12.1353 23.8854 11.9532C23.9608 11.7712 23.9997 11.5761 23.9997 11.379C23.9997 11.1819 23.9608 10.9868 23.8854 10.8048C23.81 10.6227 23.6994 10.4573 23.56 10.318Z" fill="#A9A9A9"/>
</svg>
