<svg width="137" height="137" viewBox="0 0 137 137" fill="none" xmlns="http://www.w3.org/2000/svg">
<path d="M97.0417 28.5417H39.9583C38.4444 28.5417 36.9925 29.1431 35.9219 30.2136C34.8514 31.2841 34.25 32.7361 34.25 34.25V119.875C34.25 121.389 34.8514 122.841 35.9219 123.911C36.9925 124.982 38.4444 125.583 39.9583 125.583H97.0417C98.5556 125.583 100.008 124.982 101.078 123.911C102.149 122.841 102.75 121.389 102.75 119.875V34.25C102.75 32.7361 102.149 31.2841 101.078 30.2136C100.008 29.1431 98.5556 28.5417 97.0417 28.5417Z" stroke="#2B9649" stroke-width="6" stroke-linejoin="round"/>
<path d="M34.25 51.375H102.75" stroke="#2B9649" stroke-width="6" stroke-linecap="round"/>
<path d="M34.25 42.8125V59.9375M102.75 42.8125V59.9375" stroke="#2B9649" stroke-width="6" stroke-linecap="round" stroke-linejoin="round"/>
<path d="M91.3333 11.4167H45.6667V28.5417H91.3333V11.4167Z" stroke="#2B9649" stroke-width="6" stroke-linejoin="round"/>
<path d="M57.0833 88.4792H79.9167M68.5 77.0625V99.8958" stroke="#2B9649" stroke-width="6" stroke-linecap="round"/>
</svg>
