<svg width="1440" height="620" viewBox="0 0 1440 620" fill="none" xmlns="http://www.w3.org/2000/svg">
<g clip-path="url(#clip0_3_509)">
<path d="M1446 0H7C7 0 131.979 14.0095 274.821 67.7038C390.408 111.138 496.222 196.289 726.201 196.393C726.201 196.393 726.364 196.393 726.473 196.393C726.581 196.393 726.636 196.393 726.744 196.393C956.778 196.237 1062.59 111.086 1178.13 67.6517C1321.02 14.0095 1446 0 1446 0Z" fill="#2B9649"/>
</g>
<g clip-path="url(#clip1_3_509)">
<path opacity="0.6" d="M1440 212.736H0C0 212.736 125.066 226.735 268.007 280.388C383.674 323.789 489.562 408.874 719.701 408.978C719.701 408.978 719.864 408.978 719.973 408.978C720.082 408.978 720.136 408.978 720.245 408.978C950.438 408.822 1056.33 323.737 1171.94 280.336C1314.93 226.735 1440 212.736 1440 212.736Z" fill="#2B9649"/>
<path opacity="0.3" d="M1440 434.096H0C0 434.096 125.066 443.411 268.007 479.11C383.674 507.993 489.562 564.612 719.701 564.716C719.701 564.716 719.864 564.716 719.973 564.716C720.082 564.716 720.136 564.716 720.245 564.716C950.438 564.612 1056.33 507.993 1171.94 479.11C1314.88 443.411 1439.95 434.096 1439.95 434.096H1440Z" fill="#2B9649"/>
</g>
<defs>
<clipPath id="clip0_3_509">
<rect width="1439" height="196.445" fill="white" transform="translate(7)"/>
</clipPath>
<clipPath id="clip1_3_509">
<rect width="1440" height="407.264" fill="white" transform="translate(0 212.736)"/>
</clipPath>
</defs>
</svg>
