<svg width="70" height="70" viewBox="0 0 70 70" fill="none" xmlns="http://www.w3.org/2000/svg">
<path d="M52.25 35C55.99 34.9989 59.6284 33.7822 62.6169 31.5334C65.6053 29.2846 67.782 26.1254 68.8187 22.5319C69.8555 18.9384 69.6963 15.1053 68.3651 11.6101C67.0339 8.115 64.6028 5.1472 61.4381 3.15394C58.2734 1.16068 54.5467 0.249962 50.8194 0.559008C47.0921 0.868054 43.5662 2.38012 40.7731 4.86737C37.9799 7.35462 36.0708 10.6823 35.3334 14.3489C34.596 18.0156 35.0703 21.8226 36.6847 25.1963L23.2297 31.9238C20.848 30.2244 18.0044 29.2923 15.0789 29.252C12.1534 29.2116 9.28522 30.0649 6.85752 31.6979C4.42983 33.3309 2.55822 35.6657 1.49273 38.3906C0.427233 41.1155 0.218585 44.1007 0.894656 46.9473C1.57073 49.7939 3.09933 52.3664 5.27625 54.3213C7.45317 56.2761 10.1748 57.5201 13.0775 57.8871C15.9801 58.2541 18.9257 57.7266 21.5207 56.3751C24.1156 55.0237 26.2364 52.9125 27.5997 50.3238L40.8017 56.9248C40.5404 59.71 41.3033 62.4949 42.9475 64.7581C44.5917 67.0213 47.0045 68.6076 49.7341 69.22C52.4636 69.8324 55.3228 69.4288 57.7763 68.0848C60.2297 66.7409 62.1092 64.5487 63.0627 61.9189C64.0163 59.289 63.9785 56.4017 62.9565 53.7976C61.9346 51.1936 59.9984 49.0513 57.5107 47.772C55.0229 46.4926 52.1542 46.164 49.4415 46.8475C46.7289 47.531 44.3584 49.1798 42.774 51.4853L29.2097 44.7003C29.4353 41.7764 28.7568 38.8538 27.2662 36.3283L40.0485 29.9458C41.6487 31.5509 43.5505 32.8238 45.6445 33.6912C47.7386 34.5586 49.9834 35.0034 52.25 35ZM52.25 29.25C49.2 29.25 46.2749 28.0384 44.1182 25.8817C41.9616 23.7251 40.75 20.8 40.75 17.75C40.75 14.7 41.9616 11.775 44.1182 9.61829C46.2749 7.46162 49.2 6.25002 52.25 6.25002C55.2999 6.25002 58.225 7.46162 60.3817 9.61829C62.5384 11.775 63.75 14.7 63.75 17.75C63.75 20.8 62.5384 23.7251 60.3817 25.8817C58.225 28.0384 55.2999 29.25 52.25 29.25ZM14.875 52.25C12.5875 52.25 10.3937 51.3413 8.77617 49.7238C7.15867 48.1063 6.24996 45.9125 6.24996 43.625C6.24996 41.3375 7.15867 39.1437 8.77617 37.5262C10.3937 35.9087 12.5875 35 14.875 35C17.1625 35 19.3563 35.9087 20.9738 37.5262C22.5913 39.1437 23.5 41.3375 23.5 43.625C23.5 45.9125 22.5913 48.1063 20.9738 49.7238C19.3563 51.3413 17.1625 52.25 14.875 52.25ZM58 58C58 59.525 57.3942 60.9875 56.3158 62.0659C55.2375 63.1442 53.775 63.75 52.25 63.75C50.725 63.75 49.2624 63.1442 48.1841 62.0659C47.1058 60.9875 46.5 59.525 46.5 58C46.5 56.475 47.1058 55.0125 48.1841 53.9342C49.2624 52.8558 50.725 52.25 52.25 52.25C53.775 52.25 55.2375 52.8558 56.3158 53.9342C57.3942 55.0125 58 56.475 58 58Z" fill="#2B9649"/>
</svg>
