<svg width="522" height="270" viewBox="0 0 522 270" fill="none" xmlns="http://www.w3.org/2000/svg">
<path d="M58 270L115.735 170L0.264965 170L58 270ZM48 -4.37114e-07L48 180L68 180L68 4.37114e-07L48 -4.37114e-07Z" fill="#2B9649"/>
<path d="M464 270L521.735 170L406.265 170L464 270ZM454 -4.37114e-07L454 180L474 180L474 4.37114e-07L454 -4.37114e-07Z" fill="#2B9649"/>
<path d="M261 205L318.735 105L203.265 105L261 205ZM251 -4.37114e-07L251 115L271 115L271 4.37114e-07L251 -4.37114e-07Z" fill="#2B9649"/>
<path d="M156 1L156 231" stroke="#2B9649" stroke-width="20"/>
<path d="M370 1L370 231" stroke="#2B9649" stroke-width="20"/>
</svg>
