<svg width="429" height="249" viewBox="0 0 429 249" fill="none" xmlns="http://www.w3.org/2000/svg">
<g clip-path="url(#clip0_3_593)">
<path d="M429 0H0C0 0 37.2331 6.77997 79.8165 32.8063C114.32 53.8024 145.766 95.029 214.336 95.1383C282.906 95.1383 314.462 53.8024 348.856 32.8063C391.439 6.77997 428.672 0 428.672 0L429 0Z" fill="white"/>
<path opacity="0.6" d="M429 115.587H0C0 115.587 37.2331 120.18 79.8165 137.786C114.32 152.002 145.766 179.888 214.336 179.888C282.906 179.888 314.462 152.002 348.856 137.786C391.439 120.18 428.672 115.587 428.672 115.587H429Z" fill="white"/>
<path opacity="0.3" d="M429 206.242H0C0 206.242 37.2331 209.304 79.8165 221.005C114.32 230.409 145.766 249 214.336 249C282.906 249 314.462 230.409 348.856 221.005C391.439 209.304 428.672 206.242 428.672 206.242H429Z" fill="white"/>
</g>
<defs>
<clipPath id="clip0_3_593">
<rect width="429" height="249" fill="white"/>
</clipPath>
</defs>
</svg>
