<svg width="72" height="72" viewBox="0 0 72 72" fill="none" xmlns="http://www.w3.org/2000/svg">
<g clip-path="url(#clip0_7_754)">
<path d="M63 27C62.63 27.0139 62.2613 27.0509 61.896 27.111L57.462 18.246C58.3989 17.2831 59.1079 16.1223 59.5367 14.8491C59.9655 13.5758 60.1032 12.2227 59.9397 10.8892C59.7762 9.55566 59.3156 8.27583 58.5919 7.14392C57.8682 6.01201 56.8998 5.05687 55.7581 4.34883C54.6163 3.6408 53.3303 3.19791 51.9946 3.0528C50.659 2.90768 49.3079 3.06403 48.0407 3.51033C46.7735 3.95663 45.6226 4.68151 44.6726 5.63158C43.7227 6.58165 42.9981 7.7327 42.552 8.99997H29.448C29.0013 7.73492 28.2767 6.58606 27.3276 5.63783C26.3785 4.6896 25.229 3.96612 23.9635 3.52054C22.698 3.07497 21.3488 2.91864 20.015 3.06304C18.6812 3.20745 17.3967 3.64891 16.2559 4.35499C15.1151 5.06107 14.147 6.01381 13.4229 7.14319C12.6987 8.27257 12.2368 9.54988 12.0711 10.8812C11.9055 12.2126 12.0403 13.5641 12.4656 14.8365C12.891 16.1089 13.596 17.2699 14.529 18.234L10.089 27.111C9.72862 27.0516 9.36494 27.0146 9 27C6.61305 27 4.32387 27.9482 2.63604 29.636C0.948211 31.3238 0 33.613 0 36C0 38.3869 0.948211 40.6761 2.63604 42.3639C4.32387 44.0518 6.61305 45 9 45C9.36594 44.9855 9.73063 44.9484 10.092 44.889L14.529 53.769C13.593 54.7328 12.8851 55.8943 12.4575 57.168C12.0299 58.4416 11.8934 59.795 12.0582 61.1284C12.223 62.4618 12.6848 63.7412 13.4097 64.8724C14.1345 66.0037 15.1039 66.9579 16.2464 67.6648C17.3889 68.3717 18.6754 68.8133 20.0112 68.9571C21.3471 69.1009 22.6981 68.9431 23.9649 68.4955C25.2317 68.0479 26.3819 67.3218 27.3308 66.3707C28.2798 65.4196 29.0033 64.2678 29.448 63H42.552C42.998 64.265 43.7218 65.414 44.6702 66.3626C45.6185 67.3112 46.7674 68.0353 48.0323 68.4816C49.2972 68.928 50.646 69.0852 51.9797 68.9419C53.3134 68.7985 54.598 68.3582 55.7391 67.6532C56.8803 66.9482 57.849 65.9966 58.5741 64.8681C59.2992 63.7396 59.7622 62.463 59.9292 61.1321C60.0962 59.8012 59.9629 58.4498 59.539 57.1771C59.1152 55.9045 58.4116 54.743 57.48 53.778L61.923 44.892C62.2795 44.9498 62.6391 44.9859 63 45C65.3869 45 67.6761 44.0518 69.364 42.3639C71.0518 40.6761 72 38.3869 72 36C72 33.613 71.0518 31.3238 69.364 29.636C67.6761 27.9482 65.3869 27 63 27ZM9 39C8.40666 39 7.82664 38.824 7.33329 38.4944C6.83994 38.1647 6.45542 37.6962 6.22836 37.148C6.0013 36.5998 5.94189 35.9966 6.05764 35.4147C6.1734 34.8328 6.45912 34.2982 6.87868 33.8787C7.29824 33.4591 7.83279 33.1734 8.41473 33.0576C8.99667 32.9419 9.59987 33.0013 10.1481 33.2283C10.6962 33.4554 11.1648 33.8399 11.4944 34.3333C11.8241 34.8266 12 35.4066 12 36C12 36.7956 11.6839 37.5587 11.1213 38.1213C10.5587 38.6839 9.79565 39 9 39ZM51 8.99997C51.5933 8.99997 52.1734 9.17592 52.6667 9.50556C53.1601 9.83521 53.5446 10.3037 53.7716 10.8519C53.9987 11.4001 54.0581 12.0033 53.9424 12.5852C53.8266 13.1672 53.5409 13.7017 53.1213 14.1213C52.7018 14.5408 52.1672 14.8266 51.5853 14.9423C51.0033 15.0581 50.4001 14.9987 49.852 14.7716C49.3038 14.5445 48.8352 14.16 48.5056 13.6667C48.1759 13.1733 48 12.5933 48 12C48 11.2043 48.3161 10.4413 48.8787 9.87865C49.4413 9.31604 50.2043 8.99997 51 8.99997ZM21 8.99997C21.5933 8.99997 22.1734 9.17592 22.6667 9.50556C23.1601 9.83521 23.5446 10.3037 23.7716 10.8519C23.9987 11.4001 24.0581 12.0033 23.9424 12.5852C23.8266 13.1672 23.5409 13.7017 23.1213 14.1213C22.7018 14.5408 22.1672 14.8266 21.5853 14.9423C21.0033 15.0581 20.4001 14.9987 19.8519 14.7716C19.3038 14.5445 18.8352 14.16 18.5056 13.6667C18.1759 13.1733 18 12.5933 18 12C18 11.2043 18.3161 10.4413 18.8787 9.87865C19.4413 9.31604 20.2044 8.99997 21 8.99997ZM21 63C20.4067 63 19.8266 62.824 19.3333 62.4944C18.8399 62.1647 18.4554 61.6962 18.2284 61.148C18.0013 60.5998 17.9419 59.9966 18.0576 59.4147C18.1734 58.8328 18.4591 58.2982 18.8787 57.8787C19.2982 57.4591 19.8328 57.1734 20.4147 57.0576C20.9967 56.9419 21.5999 57.0013 22.1481 57.2283C22.6962 57.4554 23.1648 57.8399 23.4944 58.3333C23.8241 58.8266 24 59.4066 24 60C24 60.7956 23.6839 61.5587 23.1213 62.1213C22.5587 62.6839 21.7956 63 21 63ZM51 63C50.4067 63 49.8266 62.824 49.3333 62.4944C48.8399 62.1647 48.4554 61.6962 48.2284 61.148C48.0013 60.5998 47.9419 59.9966 48.0576 59.4147C48.1734 58.8328 48.4591 58.2982 48.8787 57.8787C49.2982 57.4591 49.8328 57.1734 50.4147 57.0576C50.9967 56.9419 51.5999 57.0013 52.148 57.2283C52.6962 57.4554 53.1648 57.8399 53.4944 58.3333C53.8241 58.8266 54 59.4066 54 60C54 60.7956 53.6839 61.5587 53.1213 62.1213C52.5587 62.6839 51.7957 63 51 63ZM52.104 51.111C51.7387 51.0509 51.37 51.0139 51 51C49.1443 51.0037 47.3354 51.5828 45.8224 52.6573C44.3094 53.7319 43.1668 55.2491 42.552 57H29.448C28.8332 55.2491 27.6906 53.7319 26.1776 52.6573C24.6646 51.5828 22.8557 51.0037 21 51C20.6341 51.0144 20.2694 51.0515 19.908 51.111L15.471 42.231C17.0917 40.5611 17.9981 38.3255 17.9981 35.9985C17.9981 33.6714 17.0917 31.4359 15.471 29.766L19.911 20.889C20.2714 20.9483 20.6351 20.9854 21 21C22.8557 20.9962 24.6646 20.4172 26.1776 19.3426C27.6906 18.2681 28.8332 16.7509 29.448 15H42.552C43.1581 16.9683 44.4573 18.6501 46.2088 19.7335C47.9603 20.8169 50.0452 21.2285 52.077 20.892L56.517 29.778C54.8983 31.4508 53.995 33.6885 53.9989 36.0162C54.0028 38.344 54.9136 40.5787 56.538 42.246L52.104 51.111ZM63 39C62.4067 39 61.8266 38.824 61.3333 38.4944C60.8399 38.1647 60.4554 37.6962 60.2284 37.148C60.0013 36.5998 59.9419 35.9966 60.0576 35.4147C60.1734 34.8328 60.4591 34.2982 60.8787 33.8787C61.2982 33.4591 61.8328 33.1734 62.4147 33.0576C62.9967 32.9419 63.5999 33.0013 64.148 33.2283C64.6962 33.4554 65.1648 33.8399 65.4944 34.3333C65.8241 34.8266 66 35.4066 66 36C66 36.7956 65.6839 37.5587 65.1213 38.1213C64.5587 38.6839 63.7957 39 63 39Z" fill="#2B9649"/>
</g>
<defs>
<clipPath id="clip0_7_754">
<rect width="72" height="72" fill="white"/>
</clipPath>
</defs>
</svg>
