<svg width="66" height="66" viewBox="0 0 66 66" fill="none" xmlns="http://www.w3.org/2000/svg">
<g clip-path="url(#clip0_7_744)">
<path d="M55.6875 0C55.1405 0 54.6159 0.217299 54.2291 0.604092C53.8423 0.990886 53.625 1.51549 53.625 2.0625C53.625 2.60951 53.8423 3.13411 54.2291 3.52091C54.6159 3.9077 55.1405 4.125 55.6875 4.125H61.875V15.4688H59.8125C59.2655 15.4688 58.7409 15.686 58.3541 16.0728C57.9673 16.4596 57.75 16.9842 57.75 17.5312C57.75 18.0783 57.9673 18.6029 58.3541 18.9897C58.7409 19.3765 59.2655 19.5938 59.8125 19.5938H61.875V30.9375H55.6875C55.1405 30.9375 54.6159 31.1548 54.2291 31.5416C53.8423 31.9284 53.625 32.453 53.625 33C53.625 33.547 53.8423 34.0716 54.2291 34.4584C54.6159 34.8452 55.1405 35.0625 55.6875 35.0625H61.875V46.4062H59.8125C59.2655 46.4062 58.7409 46.6235 58.3541 47.0103C57.9673 47.3971 57.75 47.9217 57.75 48.4688C57.75 49.0158 57.9673 49.5404 58.3541 49.9272C58.7409 50.314 59.2655 50.5312 59.8125 50.5312H61.875V61.875H55.6875C55.1405 61.875 54.6159 62.0923 54.2291 62.4791C53.8423 62.8659 53.625 63.3905 53.625 63.9375C53.625 64.4845 53.8423 65.0091 54.2291 65.3959C54.6159 65.7827 55.1405 66 55.6875 66H63.9375C64.4845 66 65.0091 65.7827 65.3959 65.3959C65.7827 65.0091 66 64.4845 66 63.9375V2.0625C66 1.51549 65.7827 0.990886 65.3959 0.604092C65.0091 0.217299 64.4845 0 63.9375 0L55.6875 0ZM28.875 6.1875L30.3765 4.77262C30.1837 4.56786 29.951 4.4047 29.6928 4.29318C29.4346 4.18166 29.1563 4.12413 28.875 4.12413C28.5937 4.12413 28.3154 4.18166 28.0572 4.29318C27.799 4.4047 27.5663 4.56786 27.3735 4.77262L27.3652 4.78088L27.3405 4.80975L27.2498 4.90462L26.9198 5.26762C25.0959 7.29188 23.3431 9.37902 21.6645 11.5252C18.4924 15.5801 14.5943 21.1159 11.8264 26.8991C9.768 31.2015 8.25 35.8132 8.25 40.1486C8.25 52.0327 17.3745 61.875 28.875 61.875C40.3755 61.875 49.5 52.0327 49.5 40.1486C49.5 35.8174 47.982 31.2015 45.9236 26.8991C43.1558 21.1159 39.2576 15.5801 36.0855 11.5252C34.3058 9.25042 32.4428 7.04204 30.5002 4.90462L30.4095 4.80975L30.3848 4.78088L30.3765 4.77675L28.875 6.1875ZM28.809 9.34725L28.875 9.26888L28.941 9.34725C29.931 10.4775 31.3005 12.0986 32.835 14.0663C35.3554 17.2879 38.28 21.3923 40.6766 25.7276H17.0775C19.47 21.3923 22.3987 17.2879 24.915 14.0663C26.4536 12.0986 27.8231 10.4775 28.809 9.34725ZM12.375 40.1486C12.375 37.0342 13.3815 33.4991 15.0068 29.8526H42.7433C44.3726 33.4991 45.375 37.0342 45.375 40.1486C45.375 49.9826 37.8757 57.75 28.875 57.75C19.8743 57.75 12.375 49.9826 12.375 40.1486Z" fill="#2B9649"/>
</g>
<defs>
<clipPath id="clip0_7_744">
<rect width="66" height="66" fill="white"/>
</clipPath>
</defs>
</svg>
