<svg width="289" height="187" viewBox="0 0 289 187" fill="none" xmlns="http://www.w3.org/2000/svg">
<path d="M104 185.5L104 186.5L104.414 186.5L104.707 186.207L104 185.5ZM288.833 6C288.833 3.05447 286.446 0.666672 283.5 0.666672C280.554 0.666671 278.167 3.05447 278.167 6C278.167 8.94553 280.554 11.3333 283.5 11.3333C286.446 11.3333 288.833 8.94553 288.833 6ZM-8.74228e-08 186.5L104 186.5L104 184.5L8.74228e-08 184.5L-8.74228e-08 186.5ZM104.707 186.207L284.207 6.70711L282.793 5.29289L103.293 184.793L104.707 186.207Z" fill="white"/>
</svg>
