<svg width="92" height="92" viewBox="0 0 92 92" fill="none" xmlns="http://www.w3.org/2000/svg">
<path d="M63.25 46C66.9901 45.9989 70.6285 44.7822 73.6169 42.5334C76.6054 40.2846 78.782 37.1254 79.8188 33.5319C80.8556 29.9384 80.6963 26.1053 79.3651 22.6101C78.0339 19.115 75.6028 16.1472 72.4381 14.1539C69.2735 12.1607 65.5467 11.25 61.8194 11.559C58.0922 11.8681 54.5663 13.3801 51.7731 15.8674C48.98 18.3546 47.0708 21.6823 46.3334 25.3489C45.596 29.0156 46.0703 32.8226 47.6847 36.1963L34.2297 42.9238C31.848 41.2244 29.0045 40.2923 26.079 40.252C23.1534 40.2116 20.2852 41.0649 17.8576 42.6979C15.4299 44.3309 13.5583 46.6657 12.4928 49.3906C11.4273 52.1155 11.2186 55.1007 11.8947 57.9473C12.5708 60.7939 14.0994 63.3664 16.2763 65.3213C18.4532 67.2761 21.1748 68.5201 24.0775 68.8871C26.9802 69.2541 29.9257 68.7266 32.5207 67.3751C35.1157 66.0237 37.2364 63.9125 38.5997 61.3238L51.8017 67.9248C51.5405 70.71 52.3033 73.4949 53.9475 75.7581C55.5917 78.0213 58.0045 79.6076 60.7341 80.22C63.4637 80.8324 66.3229 80.4288 68.7763 79.0848C71.2298 77.7409 73.1092 75.5487 74.0628 72.9189C75.0163 70.289 74.9786 67.4017 73.9566 64.7976C72.9346 62.1936 70.9985 60.0513 68.5107 58.772C66.023 57.4926 63.1542 57.164 60.4416 57.8475C57.7289 58.531 55.3585 60.1798 53.774 62.4853L40.2097 55.7003C40.4353 52.7764 39.7569 49.8538 38.2662 47.3283L51.0485 40.9458C52.6487 42.5509 54.5506 43.8238 56.6446 44.6912C58.7386 45.5586 60.9834 46.0034 63.25 46ZM63.25 40.25C60.2 40.25 57.2749 39.0384 55.1183 36.8817C52.9616 34.7251 51.75 31.8 51.75 28.75C51.75 25.7 52.9616 22.775 55.1183 20.6183C57.2749 18.4616 60.2 17.25 63.25 17.25C66.3 17.25 69.225 18.4616 71.3817 20.6183C73.5384 22.775 74.75 25.7 74.75 28.75C74.75 31.8 73.5384 34.7251 71.3817 36.8817C69.225 39.0384 66.3 40.25 63.25 40.25ZM25.875 63.25C23.5875 63.25 21.3937 62.3413 19.7762 60.7238C18.1587 59.1063 17.25 56.9125 17.25 54.625C17.25 52.3375 18.1587 50.1437 19.7762 48.5262C21.3937 46.9087 23.5875 46 25.875 46C28.1625 46 30.3563 46.9087 31.9738 48.5262C33.5913 50.1437 34.5 52.3375 34.5 54.625C34.5 56.9125 33.5913 59.1063 31.9738 60.7238C30.3563 62.3413 28.1625 63.25 25.875 63.25ZM69 69C69 70.525 68.3942 71.9875 67.3159 73.0659C66.2375 74.1442 64.775 74.75 63.25 74.75C61.725 74.75 60.2625 74.1442 59.1841 73.0659C58.1058 71.9875 57.5 70.525 57.5 69C57.5 67.475 58.1058 66.0125 59.1841 64.9342C60.2625 63.8558 61.725 63.25 63.25 63.25C64.775 63.25 66.2375 63.8558 67.3159 64.9342C68.3942 66.0125 69 67.475 69 69Z" fill="white"/>
</svg>
